<?xml version="1.0" standalone="no"?>
<!DOCTYPE svg PUBLIC "-//W3C//DTD SVG 20010904//EN"
 "http://www.w3.org/TR/2001/REC-SVG-20010904/DTD/svg10.dtd">
<svg version="1.0" xmlns="http://www.w3.org/2000/svg"
 width="997.000000pt" height="824.000000pt" viewBox="0 0 997.000000 824.000000"
 preserveAspectRatio="xMidYMid meet">
<metadata>
Created by potrace 1.16, written by Peter Selinger 2001-2019
</metadata>
<g transform="translate(0.000000,824.000000) scale(0.100000,-0.100000)"
fill="#000000" stroke="none">
<path d="M4400 7829 c-132 -14 -326 -48 -427 -74 -420 -110 -793 -430 -1032
-885 -56 -107 -114 -247 -108 -263 2 -6 16 20 31 59 88 221 316 538 507 702
219 189 436 297 709 350 758 150 1460 -6 2014 -446 485 -385 839 -1029 838
-1522 0 -125 -25 -299 -45 -315 -7 -5 -23 -27 -36 -48 -44 -72 -217 -173 -422
-245 -136 -48 -477 -92 -713 -92 -172 0 -282 18 -563 90 -351 91 -408 101
-585 107 -205 7 -324 -15 -470 -88 -157 -79 -350 -96 -488 -45 -129 48 -186
58 -290 53 -74 -4 -114 -12 -182 -36 -283 -104 -589 -445 -743 -826 -65 -162
-137 -484 -171 -765 -22 -179 -25 -564 -5 -725 78 -651 310 -1178 690 -1569
354 -363 753 -551 1131 -533 217 11 369 75 510 217 124 124 201 280 235 479 9
47 17 86 19 89 7 7 28 -79 35 -141 l6 -58 160 91 c88 50 277 169 420 265 143
95 289 189 325 208 234 126 477 108 816 -60 112 -55 253 -153 220 -153 -9 0
-14 -4 -11 -10 3 -5 17 -10 30 -10 19 0 67 -46 112 -109 2 -2 5 -2 7 0 3 2 -6
26 -20 52 -13 27 -24 50 -24 51 0 2 26 9 58 15 80 18 166 66 238 133 101 95
202 256 218 348 5 27 0 21 -19 -25 -30 -72 -109 -180 -187 -256 -61 -59 -151
-112 -263 -154 l-67 -26 -65 66 c-68 69 -180 141 -273 176 -178 67 -555 90
-725 44 -18 -5 -20 -1 -21 52 -3 106 -73 252 -186 387 -32 39 -61 80 -65 93
-9 39 3 85 37 141 30 47 32 57 27 112 -8 91 -4 99 56 102 76 5 91 30 97 166
l5 106 49 12 c29 8 62 25 79 43 26 26 30 37 32 91 1 33 7 66 13 72 8 8 46 11
110 9 79 -2 112 2 161 19 91 30 132 60 267 191 92 89 138 126 192 153 94 47
222 84 356 102 l110 14 34 -32 c19 -18 67 -74 107 -124 86 -108 136 -150 230
-197 73 -37 175 -71 175 -59 0 4 -42 36 -93 72 -146 102 -297 223 -357 285
l-55 57 105 -6 c273 -17 494 -98 770 -281 370 -246 552 -504 605 -855 8 -52
15 -117 15 -143 0 -47 -1 -48 -45 -67 -24 -10 -61 -22 -82 -26 -44 -8 -78 -23
-53 -24 19 0 116 16 154 25 l28 8 -7 -44 c-9 -53 -16 -58 -80 -60 -56 0 -41
-13 29 -24 l38 -6 -6 -50 c-10 -74 -52 -212 -97 -316 -115 -270 -299 -451
-564 -556 -279 -110 -633 -84 -939 70 -37 19 -70 33 -72 31 -5 -6 360 -317
460 -391 176 -130 346 -195 486 -184 l65 5 -40 -34 c-278 -240 -606 -438 -909
-549 -270 -99 -670 -166 -892 -150 -181 13 -215 17 -298 31 -285 48 -554 143
-816 288 -65 36 -122 66 -125 66 -53 0 223 -180 438 -285 737 -361 1621 -282
2357 210 170 113 272 197 421 345 365 362 615 808 684 1222 20 122 31 295 25
392 l-5 77 38 37 c43 42 87 112 87 138 0 11 -21 -4 -62 -44 -34 -34 -63 -60
-65 -59 -1 1 -11 48 -22 104 -40 194 -107 349 -219 508 -35 48 -181 206 -372
400 -393 399 -503 540 -651 835 -113 227 -188 433 -209 575 -21 139 -79 425
-120 581 -122 473 -311 883 -524 1139 -32 39 -104 115 -160 170 -55 55 -150
153 -209 217 -336 365 -789 603 -1298 683 -122 19 -491 27 -619 14z m2445
-2576 c-159 -516 -255 -719 -417 -882 -71 -72 -170 -141 -203 -141 -91 0 -207
-82 -263 -187 -54 -102 -112 -344 -112 -470 0 -71 -20 -140 -47 -167 -32 -32
-67 -33 -182 -6 -173 42 -262 43 -299 6 -8 -8 -19 -43 -24 -78 -4 -34 -12 -66
-16 -70 -12 -12 -192 25 -275 55 -85 31 -130 62 -159 109 -19 30 -29 38 -55
38 -17 0 -35 5 -38 10 -11 18 -35 11 -35 -10 0 -15 13 -26 44 -40 24 -10 47
-27 50 -38 17 -53 150 -146 243 -171 41 -11 42 -12 31 -41 -19 -57 -48 -69
-146 -63 -76 5 -93 3 -129 -16 -50 -25 -83 -66 -118 -146 -87 -199 -99 -214
-192 -241 -45 -13 -66 -14 -107 -6 -106 21 -431 196 -608 326 l-86 65 23 73
c104 339 336 693 681 1043 196 198 357 316 579 424 276 135 481 193 1055 297
335 60 450 93 575 165 92 53 186 135 221 195 14 24 27 44 29 44 2 0 -7 -35
-20 -77z m-3406 -154 c24 -5 119 -45 210 -88 216 -103 223 -105 345 -99 83 4
115 11 179 37 200 81 422 79 763 -4 230 -57 353 -63 599 -30 27 4 6 -7 -65
-33 -391 -146 -760 -347 -1030 -563 -128 -102 -342 -314 -433 -429 -166 -208
-303 -446 -362 -629 -17 -50 -33 -91 -38 -91 -13 0 -180 171 -243 250 -132
165 -212 295 -291 480 -91 212 -101 320 -48 506 31 106 103 260 145 308 l30
34 -34 34 c-47 47 -63 103 -47 171 17 78 50 130 91 144 43 15 170 16 229 2z
m3502 -1115 c62 -29 199 -147 187 -160 -3 -2 -56 21 -117 53 l-112 58 -102 0
c-80 0 -109 -4 -136 -18 -73 -40 -103 -104 -65 -141 13 -14 13 -16 0 -16 -21
0 -56 48 -56 77 0 63 80 145 170 174 14 5 57 7 95 6 54 -2 85 -9 136 -33z
m-3282 -874 l34 -29 -19 -103 c-26 -139 -26 -415 -1 -540 40 -197 138 -415
235 -521 14 -15 21 -27 15 -27 -18 0 -113 110 -170 196 -126 194 -193 430
-193 684 0 146 35 371 58 370 4 -1 22 -14 41 -30z"/>
<path d="M3831 6419 c-595 -52 -1221 -284 -1685 -624 -628 -458 -1003 -1054
-1112 -1765 -23 -144 -26 -543 -6 -700 127 -1009 727 -2021 1502 -2533 303
-200 676 -308 1116 -324 364 -13 669 59 901 214 92 60 192 147 181 158 -3 4
-37 -16 -73 -45 -86 -65 -264 -152 -380 -184 -285 -80 -664 -72 -1028 20 -406
103 -674 261 -1007 594 -286 286 -534 635 -730 1029 -223 447 -343 881 -370
1338 -32 531 85 1017 347 1440 248 399 674 768 1114 965 243 109 607 211 919
260 126 19 185 22 445 22 271 1 312 -1 430 -22 292 -53 489 -116 740 -236 180
-87 295 -158 501 -311 85 -63 182 -128 217 -144 210 -103 402 -76 633 87 81
57 264 231 264 251 0 9 -10 5 -29 -10 -222 -181 -326 -248 -448 -286 -70 -21
-97 -25 -171 -21 -137 6 -207 44 -435 231 -388 320 -830 513 -1323 581 -144
20 -382 27 -513 15z"/>
<path d="M7261 3279 c-172 -34 -331 -130 -403 -245 -37 -58 -68 -149 -68 -197
l0 -42 24 57 c13 31 36 78 51 105 34 58 144 169 205 208 112 70 255 106 430
107 73 0 104 3 85 8 -41 10 -270 10 -324 -1z"/>
<path d="M6992 2945 c-69 -52 -125 -116 -152 -177 -22 -49 -24 -77 -9 -130 12
-45 29 -50 29 -8 0 47 45 177 76 218 16 20 50 61 78 90 27 28 46 52 43 52 -3
0 -32 -20 -65 -45z"/>
<path d="M7036 2673 c-105 -160 -147 -208 -191 -223 -19 -6 -35 -16 -35 -21 0
-6 5 -7 10 -4 23 14 99 6 141 -15 50 -25 124 -92 145 -132 18 -34 18 -119 0
-161 -32 -74 -128 -142 -243 -172 -75 -20 -214 -20 -276 -1 -96 29 -167 104
-167 176 0 37 -23 80 -43 80 -8 0 -8 -3 1 -12 7 -7 12 -37 12 -68 0 -153 136
-246 320 -220 327 45 443 117 466 287 14 107 -78 219 -220 267 -17 6 -16 8 8
27 29 23 178 319 161 319 -3 0 -43 -57 -89 -127z"/>
<path d="M6683 2281 c-29 -11 -62 -26 -75 -35 -25 -18 -17 -22 11 -6 10 5 37
14 60 19 41 9 43 8 62 -22 37 -61 24 -111 -35 -138 -39 -18 -36 -23 9 -20 80
7 126 112 73 168 l-21 23 31 0 c17 0 50 -7 72 -16 69 -28 77 -68 30 -151 -17
-29 -26 -53 -20 -53 22 0 97 87 102 118 12 83 -54 132 -177 131 -43 0 -90 -7
-122 -18z"/>
</g>
</svg>
